General

Format                         : MPEG-4
Format profile                 : Base Media
Codec ID                       : isom
File size                      : 102 MiB
Duration                       : 5mn 31s
Overall bit rate mode          : Variable
Overall bit rate               : 2 574 Kbps
Encoded date                   : UTC 2012-08-31 03:50:14
Tagged date                    : UTC 2012-08-31 03:50:14

Video
ID                             : 1
Format                         : AVC
Format/Info                    : Advanced Video Codec
Format profile                 : High@L3.0
Format settings, CABAC         : Yes
Format settings, ReFrames      : 2 frames
Codec ID                       : avc1
Codec ID/Info                  : Advanced Video Coding
Duration                       : 5mn 31s
Bit rate                       : 2 285 Kbps
Maximum bit rate               : 14.8 Mbps
Width                          : 720 pixels
Height                         : 480 pixels
Display aspect ratio           : 16:9
Original display aspect ratio  : 16:9
Frame rate mode                : Constant
Frame rate                     : 25.000 fps
Standard                       : NTSC
Color space                    : YUV
Chroma subsampling             : 4:2:0
Bit depth                      : 8 bits
Scan type                      : Progressive
Bits/(Pixel*Frame)             : 0.264
Stream size                    : 92.3 MiB (91%)


Audio
ID                             : 2
Format                         : MPEG Audio
Format version                 : Version 1
Format profile                 : Layer 3
Mode                           : Joint stereo
Mode extension                 : MS Stereo
Codec ID                       : 6B
Duration                       : 5mn 31s
Bit rate mode                  : Variable
Bit rate                       : 233 Kbps
Maximum bit rate               : 278 Kbps
Channel(s)                     : 2 channels
Sampling rate                  : 44.1 KHz
Compression mode               : Lossy
Delay relative to video        : -7ms
Stream size                    : 9.19 MiB (9%)